<?xml version="1.0" encoding="UTF-8" standalone="no"?>
<!DOCTYPE svg PUBLIC "-//W3C//DTD SVG 1.1//EN"
 "http://www.w3.org/Graphics/SVG/1.1/DTD/svg11.dtd">
<!-- Generated by graphviz version 2.43.0 (0)
 -->
<!-- Title: %3 Pages: 1 -->
<svg width="208pt" height="156pt"
 viewBox="0.00 0.00 208.00 156.00" xmlns="http://www.w3.org/2000/svg" xmlns:xlink="http://www.w3.org/1999/xlink">
<g id="graph0" class="graph" transform="scale(1 1) rotate(0) translate(36 120)">
<title>%3</title>
<polygon fill="white" stroke="transparent" points="-36,36 -36,-120 172,-120 172,36 -36,36"/>
<!-- sdshdr -->
<g id="node1" class="node">
<title>sdshdr</title>
<polygon fill="none" stroke="black" points="0,-63 0,-84 136,-84 136,-63 0,-63"/>
<text text-anchor="start" x="43.5" y="-70.8" font-family="Times,serif" font-style="italic" font-size="14.00">sdshdr</text>
<polygon fill="none" stroke="black" points="0,-42 0,-63 96,-63 96,-42 0,-42"/>
<text text-anchor="start" x="3" y="-48.8" font-family="Times,serif" font-size="14.00">unsigned int</text>
<polygon fill="none" stroke="black" points="96,-42 96,-63 136,-63 136,-42 96,-42"/>
<text text-anchor="start" x="101.5" y="-48.8" font-family="Times,serif" font-size="14.00">free</text>
<polygon fill="none" stroke="black" points="0,-21 0,-42 96,-42 96,-21 0,-21"/>
<text text-anchor="start" x="3" y="-27.8" font-family="Times,serif" font-size="14.00">unsigned int</text>
<polygon fill="none" stroke="black" points="96,-21 96,-42 136,-42 136,-21 96,-21"/>
<text text-anchor="start" x="105" y="-27.8" font-family="Times,serif" font-size="14.00">len</text>
<polygon fill="none" stroke="black" points="0,0 0,-21 96,-21 96,0 0,0"/>
<text text-anchor="start" x="32" y="-6.8" font-family="Times,serif" font-size="14.00">char</text>
<polygon fill="none" stroke="black" points="96,0 96,-21 136,-21 136,0 96,0"/>
<text text-anchor="start" x="99" y="-6.8" font-family="Times,serif" font-size="14.00">buf[]</text>
</g>
</g>
</svg>
